<?xml version="1.0" encoding="UTF-8" standalone="no"?>
<svg width="52px" height="52px" viewBox="0 0 52 52" version="1.1" xmlns="http://www.w3.org/2000/svg" xmlns:xlink="http://www.w3.org/1999/xlink" xmlns:sketch="http://www.bohemiancoding.com/sketch/ns">
    <!-- Generator: Sketch 3.2.2 (9983) - http://www.bohemiancoding.com/sketch -->
    <title>logo</title>
    <desc>Created with Sketch.</desc>
    <defs></defs>
    <g id="Welcome" stroke="none" stroke-width="1" fill="none" fill-rule="evenodd" sketch:type="MSPage">
        <g id="Mobile-Portrait" sketch:type="MSArtboardGroup" transform="translate(-15.000000, -14.000000)" fill="#1A1918">
            <g id="logo" sketch:type="MSLayerGroup" transform="translate(15.000000, 14.000000)">
                <path d="M7.99792958,11.3721263 L10.5506901,11.3721263 L10.5506901,14.9849404 C10.6916761,14.8143439 10.8528028,14.6740351 11.0342535,14.5634667 C11.215338,14.4530807 11.4017324,14.3676912 11.5928873,14.3074807 C11.7842254,14.2472702 11.9680563,14.2073123 12.1443803,14.1870596 C12.3205211,14.1669895 12.4741408,14.1569544 12.6052394,14.1569544 C12.977662,14.1569544 13.325,14.2096842 13.6474366,14.3149614 C13.9696901,14.4204211 14.251662,14.5857263 14.4933521,14.8112421 C14.7352254,15.0367579 14.924,15.327593 15.0598592,15.6833825 C15.1959014,16.0391719 15.263831,16.4628351 15.263831,16.954007 L15.263831,21.4050246 L12.7108873,21.4050246 L12.7108873,17.6172351 C12.7108873,17.2366316 12.6279437,16.9384982 12.4616901,16.7230175 C12.2954366,16.5075368 12.0511831,16.3998877 11.7291127,16.3998877 C11.4973099,16.3998877 11.3059718,16.4351018 11.1549155,16.5051649 C11.0040423,16.575593 10.8831972,16.6708351 10.7923803,16.7912561 C10.7017465,16.9116772 10.6387606,17.0448702 10.6036056,17.1901053 C10.5682676,17.3357053 10.5506901,17.4836772 10.5506901,17.6342035 L10.5506901,21.4125053 L7.99792958,21.4125053 L7.99792958,11.3721263" id="Fill-1" sketch:type="MSShapeGroup"></path>
                <path d="M20.7320704,20.7501895 C20.4098169,21.0913825 20.0848169,21.3272982 19.7578028,21.4577544 C19.4304225,21.5880281 19.0250423,21.6533474 18.5418451,21.6533474 C18.3100423,21.6533474 18.0632254,21.6206877 17.8015775,21.5555509 C17.5395634,21.4900491 17.2978732,21.3774737 17.076507,21.2167298 C16.8549577,21.0563509 16.6736901,20.8381333 16.5327042,20.5620772 C16.3913521,20.2862035 16.3212254,19.9373474 16.3212254,19.5158737 C16.3212254,19.0944 16.4118592,18.7205474 16.5931268,18.3944982 C16.7743944,18.0684491 17.0210282,17.7975018 17.3332113,17.5814737 C17.6453944,17.3658105 18.0079296,17.2028772 18.4208169,17.0923088 C18.8337042,16.9819228 19.2669155,16.9266386 19.7200845,16.9266386 C19.9517042,16.9266386 20.1355352,16.9319298 20.2713944,16.9417825 C20.4074366,16.9518175 20.5608732,16.9669614 20.7320704,16.9868491 L20.7320704,16.8514667 C20.7320704,16.6708351 20.6943521,16.5228632 20.6187324,16.4073684 C20.5432958,16.2922386 20.4475352,16.2019228 20.3318169,16.1364211 C20.2159155,16.0712842 20.0901268,16.0262175 19.9542676,16.0008561 C19.8182254,15.9760421 19.6847465,15.9632702 19.553831,15.9632702 C19.100662,15.9632702 18.7027887,16.0211088 18.3603944,16.1364211 C18.018,16.2519158 17.7411549,16.3847439 17.5296761,16.5352702 L16.5629155,15.0752561 C16.8648451,14.8342316 17.2879859,14.6138246 17.8317887,14.4127579 C18.3755915,14.2122386 19.0704507,14.1117053 19.9163662,14.1117053 C20.4098169,14.1117053 20.8580423,14.1746526 21.2608592,14.3 C21.663493,14.4255298 22.0110141,14.616014 22.3032394,14.872 C22.5950986,15.1278035 22.8217746,15.444 22.9829014,15.820407 C23.1438451,16.1966316 23.2247746,16.6358035 23.2247746,17.1373754 L23.2247746,21.4125053 L20.8228873,21.4125053 L20.7320704,20.7501895 L20.7320704,20.7501895 Z M20.7320704,18.3567298 C20.5608732,18.3167719 20.3292535,18.2965193 20.0373944,18.2965193 C19.6142535,18.2965193 19.3020704,18.3793544 19.100662,18.5448421 C18.8992535,18.7105123 18.7985493,18.9088421 18.7985493,19.1394667 C18.7985493,19.6614737 19.080338,19.9222035 19.6444648,19.9222035 C19.7753803,19.9222035 19.9062958,19.9048702 20.0373944,19.8696561 C20.1679437,19.8346246 20.2838451,19.774414 20.3847324,19.6890246 C20.4852535,19.6038175 20.5683803,19.4908772 20.6339296,19.350386 C20.6992958,19.2098947 20.7320704,19.0341895 20.7320704,18.8234526 L20.7320704,18.3567298 L20.7320704,18.3567298 Z" id="Fill-2" sketch:type="MSShapeGroup"></path>
                <path d="M24.6749155,11.3721263 L27.2276761,11.3721263 L27.2276761,21.4125053 L24.6749155,21.4125053 L24.6749155,11.3721263 Z" id="Fill-3" sketch:type="MSShapeGroup"></path>
                <path d="M28.6778169,14.337586 L31.2305775,14.337586 L31.2305775,18.2062035 C31.2305775,18.557614 31.3036338,18.838414 31.4497465,19.0491509 C31.5956761,19.2598877 31.8551268,19.3653474 32.2277324,19.3653474 C32.4289577,19.3653474 32.5977746,19.3303158 32.7336338,19.2598877 C32.8698592,19.1898246 32.9804507,19.0944 33.0661408,18.9739789 C33.1516479,18.8535579 33.2120704,18.7205474 33.2474085,18.5749474 C33.2823803,18.4297123 33.3001408,18.2815579 33.3001408,18.1310316 L33.3001408,14.337586 L35.8532676,14.337586 L35.8532676,21.4125053 L33.3907746,21.4125053 L33.3001408,20.6899789 C33.1591549,20.8607579 32.9982113,21.0061754 32.8167606,21.1265965 C32.635493,21.2468351 32.4490986,21.3424421 32.2579437,21.4125053 C32.0664225,21.4825684 31.8825915,21.5329263 31.7064507,21.5630316 C31.5301268,21.5931368 31.376507,21.6082807 31.2457746,21.6082807 C30.8729859,21.6082807 30.5305915,21.5555509 30.2185915,21.4500912 C29.9062254,21.344814 29.6368873,21.1791439 29.4103944,20.9534456 C29.1839014,20.7275649 29.004831,20.4392842 28.8740986,20.0878737 C28.743,19.7366456 28.6778169,19.3102456 28.6778169,18.8083088 L28.6778169,14.337586" id="Fill-4" sketch:type="MSShapeGroup"></path>
                <path d="M37.3336197,14.337586 L39.7959296,14.337586 L39.8865634,15.0752561 C40.0273662,14.9046596 40.1886761,14.7590596 40.3699437,14.6386386 C40.5512113,14.5182175 40.7374225,14.4229754 40.9287606,14.3525474 C41.1200986,14.2826667 41.3039296,14.2323088 41.4802535,14.2022035 C41.6563944,14.1720982 41.8100141,14.1569544 41.9411127,14.1569544 C42.3135352,14.1569544 42.658493,14.2096842 42.9758028,14.3149614 C43.2929296,14.4204211 43.5672113,14.5859088 43.7990141,14.8117895 C44.0306338,15.0374877 44.2119014,15.3286877 44.343,15.6848421 C44.4735493,16.0411789 44.5392817,16.465207 44.5392817,16.9567439 L44.5392817,21.4125053 L41.986338,21.4125053 L41.986338,17.5590316 C41.986338,17.2078035 41.9130986,16.9266386 41.767169,16.7159018 C41.6210563,16.5051649 41.3870563,16.3998877 41.0648028,16.3998877 C40.8331831,16.3998877 40.6418451,16.4351018 40.4907887,16.5051649 C40.3397324,16.575593 40.2188873,16.6708351 40.1282535,16.7912561 C40.0376197,16.9116772 39.9746338,17.0448702 39.9394789,17.1901053 C39.9039577,17.3357053 39.8865634,17.4836772 39.8865634,17.6342035 L39.8865634,21.4125053 L37.3336197,21.4125053 L37.3336197,14.337586" id="Fill-5" sketch:type="MSShapeGroup"></path>
                <path d="M7.99792958,29.4356491 L10.5506901,29.4356491 L10.5506901,34.3732772 L12.3181408,32.4011088 L15.158,32.4011088 L12.7410986,35.0054877 L15.5509296,39.4762105 L12.6202535,39.4762105 L11.0492676,36.7665544 L10.5506901,37.2934877 L10.5506901,39.4762105 L7.99792958,39.4762105 L7.99792958,29.4356491" id="Fill-6" sketch:type="MSShapeGroup"></path>
                <path d="M20.2486901,38.8138947 C19.9262535,39.1550877 19.6014366,39.3910035 19.2744225,39.5212772 C18.9468592,39.6517333 18.541662,39.7170526 18.0582817,39.7170526 C17.8264789,39.7170526 17.5798451,39.6842105 17.3180141,39.6192561 C17.056,39.5537544 16.8143099,39.4409965 16.5929437,39.2804351 C16.3713944,39.1198737 16.1901268,38.9016561 16.0491408,38.6256 C15.9079718,38.3497263 15.837662,38.0010526 15.837662,37.5793965 C15.837662,37.1581053 15.9282958,36.7842526 16.1095634,36.4582035 C16.2910141,36.1319719 16.5374648,35.8610246 16.8496479,35.6451789 C17.1620141,35.4295158 17.5243662,35.2664 17.9374366,35.156014 C18.3503239,35.0456281 18.7833521,34.9903439 19.2365211,34.9903439 C19.4681408,34.9903439 19.6519718,34.9956351 19.787831,35.0054877 C19.9238732,35.0155228 20.0773099,35.0304842 20.2486901,35.0505544 L20.2486901,34.9151719 C20.2486901,34.7343579 20.2109718,34.5865684 20.1353521,34.4710737 C20.0599155,34.3557614 19.9639718,34.2654456 19.8482535,34.2001263 C19.7325352,34.134807 19.6065634,34.0897404 19.4707042,34.0645614 C19.3348451,34.0397474 19.2011831,34.0269754 19.0702676,34.0269754 C18.6172817,34.0269754 18.2192254,34.084814 17.8770141,34.2001263 C17.5346197,34.3154386 17.2575915,34.4484491 17.0462958,34.5989754 L16.0793521,33.1387789 C16.3814648,32.8979368 16.8044225,32.6773474 17.3482254,32.4764632 C17.8922113,32.2759439 18.5870704,32.1754105 19.4329859,32.1754105 C19.9262535,32.1754105 20.3744789,32.2383579 20.7774789,32.3635228 C21.1801127,32.4892351 21.5274507,32.6797193 21.8196761,32.9357053 C22.1117183,33.1915088 22.3382113,33.5077053 22.4995211,33.8839298 C22.6604648,34.2603368 22.7412113,34.6995088 22.7412113,35.2010807 L22.7412113,39.4762105 L20.3393239,39.4762105 L20.2486901,38.8138947 L20.2486901,38.8138947 Z M20.2486901,36.4204351 C20.0773099,36.3804772 19.8458732,36.3600421 19.553831,36.3600421 C19.1306901,36.3600421 18.818507,36.4430596 18.6172817,36.6085474 C18.4156901,36.7742175 18.3149859,36.9723649 18.3149859,37.2031719 C18.3149859,37.7251789 18.5967746,37.9859088 19.1609014,37.9859088 C19.2918169,37.9859088 19.4227324,37.9685754 19.553831,37.9333614 C19.6845634,37.8981474 19.8004648,37.8379368 19.901169,37.7525474 C20.0016901,37.6675228 20.0848169,37.5545825 20.1505493,37.4139088 C20.2157324,37.2734175 20.2486901,37.0977123 20.2486901,36.8869754 L20.2486901,36.4204351 L20.2486901,36.4204351 Z" id="Fill-7" sketch:type="MSShapeGroup"></path>
                <path d="M3.70097183,3.76370526 L48.2790704,3.76370526 L48.2790704,48.1853895 L3.70097183,48.1853895 L3.70097183,3.76370526 Z M0.039,51.8343298 L51.9408592,51.8343298 L51.9408592,0.1144 L0.039,0.1144 L0.039,51.8343298 Z" id="Fill-8" sketch:type="MSShapeGroup"></path>
            </g>
        </g>
    </g>
</svg>