<?xml version="1.0" encoding="utf-8"?>
<!-- Generator: Adobe Illustrator 18.1.1, SVG Export Plug-In . SVG Version: 6.00 Build 0)  -->
<svg version="1.1" xmlns="http://www.w3.org/2000/svg" xmlns:xlink="http://www.w3.org/1999/xlink" x="0px" y="0px"
	 viewBox="0 0 841.9 595.3" enable-background="new 0 0 841.9 595.3" xml:space="preserve">
<g id="Layer_1" display="none">
	<g display="inline">
		<text transform="matrix(1 0 0 1 318.6378 262.6371)" font-family="'Effra-Heavy'" font-size="82.5024">halun</text>
		<text transform="matrix(1 0 0 1 318.6378 361.64)"><tspan x="0" y="0" font-family="'Effra-Heavy'" font-size="82.5024">k</tspan><tspan x="45" y="0" font-family="'Effra-Heavy'" font-size="82.5024">a</tspan></text>
		<g>
			<path d="M542.7,165.9v243.5H299.2V165.9H542.7 M562.7,145.9H279.2v283.5h283.5V145.9L562.7,145.9z"/>
		</g>
	</g>
</g>
<g id="Layer_2">
	<g>
		<g>
			<path d="M303.7,217.6h13.9v19.8c0.8-0.9,1.7-1.7,2.6-2.3c1-0.6,2-1.1,3.1-1.4c1-0.3,2-0.5,3-0.7c1-0.1,1.8-0.2,2.5-0.2
				c2,0,3.9,0.3,5.7,0.9c1.8,0.6,3.3,1.5,4.6,2.7c1.3,1.2,2.4,2.8,3.1,4.8c0.7,2,1.1,4.3,1.1,7v24.4h-13.9v-20.8
				c0-2.1-0.5-3.7-1.4-4.9c-0.9-1.2-2.2-1.8-4-1.8c-1.3,0-2.3,0.2-3.1,0.6c-0.8,0.4-1.5,0.9-2,1.6c-0.5,0.7-0.8,1.4-1,2.2
				c-0.2,0.8-0.3,1.6-0.3,2.4v20.7h-13.9V217.6z"/>
			<path d="M373.2,269c-1.8,1.9-3.5,3.2-5.3,3.9c-1.8,0.7-4,1.1-6.6,1.1c-1.3,0-2.6-0.2-4-0.5c-1.4-0.4-2.8-1-4-1.9
				c-1.2-0.9-2.2-2.1-3-3.6c-0.8-1.5-1.2-3.4-1.2-5.7s0.5-4.4,1.5-6.1c1-1.8,2.3-3.3,4-4.5c1.7-1.2,3.7-2.1,5.9-2.7
				c2.3-0.6,4.6-0.9,7.1-0.9c1.3,0,2.3,0,3,0.1c0.7,0.1,1.6,0.1,2.5,0.2v-0.7c0-1-0.2-1.8-0.6-2.4c-0.4-0.6-0.9-1.1-1.6-1.5
				c-0.6-0.4-1.3-0.6-2.1-0.7c-0.7-0.1-1.5-0.2-2.2-0.2c-2.5,0-4.6,0.3-6.5,0.9c-1.9,0.6-3.4,1.4-4.5,2.2l-5.3-8
				c1.6-1.3,4-2.5,6.9-3.6c3-1.1,6.8-1.6,11.4-1.6c2.7,0,5.1,0.3,7.3,1c2.2,0.7,4.1,1.7,5.7,3.1c1.6,1.4,2.8,3.1,3.7,5.2
				c0.9,2.1,1.3,4.5,1.3,7.2v23.4h-13.1L373.2,269z M373.2,255.9c-0.9-0.2-2.2-0.3-3.8-0.3c-2.3,0-4,0.5-5.1,1.4
				c-1.1,0.9-1.7,2-1.7,3.3c0,2.9,1.5,4.3,4.6,4.3c0.7,0,1.4-0.1,2.1-0.3c0.7-0.2,1.3-0.5,1.9-1c0.5-0.5,1-1.1,1.4-1.9
				c0.4-0.8,0.5-1.7,0.5-2.9V255.9z"/>
			<path d="M394.8,217.6h13.9v55h-13.9V217.6z"/>
			<path d="M416.6,233.9h13.9v21.2c0,1.9,0.4,3.5,1.2,4.6c0.8,1.2,2.2,1.7,4.2,1.7c1.1,0,2-0.2,2.8-0.6c0.7-0.4,1.3-0.9,1.8-1.6
				c0.5-0.7,0.8-1.4,1-2.2c0.2-0.8,0.3-1.6,0.3-2.4v-20.8h13.9v38.8h-13.4l-0.5-4c-0.8,0.9-1.6,1.7-2.6,2.4c-1,0.7-2,1.2-3.1,1.6
				c-1,0.4-2,0.7-3,0.8c-1,0.2-1.8,0.2-2.5,0.2c-2,0-3.9-0.3-5.6-0.9c-1.7-0.6-3.2-1.5-4.4-2.7c-1.2-1.2-2.2-2.8-2.9-4.7
				c-0.7-1.9-1.1-4.3-1.1-7V233.9z"/>
			<path d="M463.9,233.9h13.4l0.5,4c0.8-0.9,1.7-1.7,2.6-2.4c1-0.7,2-1.2,3.1-1.6c1-0.4,2-0.7,3-0.8c1-0.2,1.8-0.2,2.5-0.2
				c2,0,3.9,0.3,5.7,0.9s3.2,1.5,4.5,2.7c1.3,1.2,2.3,2.8,3,4.8c0.7,2,1.1,4.3,1.1,7v24.4h-13.9v-21.1c0-1.9-0.4-3.5-1.2-4.6
				c-0.8-1.2-2.1-1.7-3.8-1.7c-1.3,0-2.3,0.2-3.1,0.6c-0.8,0.4-1.5,0.9-2,1.6c-0.5,0.7-0.8,1.4-1,2.2c-0.2,0.8-0.3,1.6-0.3,2.4v20.7
				h-13.9V233.9z"/>
		</g>
		<g>
			<path d="M303.7,316.6h13.9v27.1l9.7-10.8h15.5l-13.2,14.3l15.3,24.5h-16l-8.6-14.9l-2.7,2.9v12h-13.9V316.6z"/>
			<path d="M370.6,368c-1.8,1.9-3.5,3.2-5.3,3.9c-1.8,0.7-4,1.1-6.6,1.1c-1.3,0-2.6-0.2-4-0.5c-1.4-0.4-2.8-1-4-1.9
				c-1.2-0.9-2.2-2.1-3-3.6c-0.8-1.5-1.2-3.4-1.2-5.7c0-2.3,0.5-4.4,1.5-6.1s2.3-3.3,4-4.5c1.7-1.2,3.7-2.1,5.9-2.7
				c2.3-0.6,4.6-0.9,7.1-0.9c1.3,0,2.3,0,3,0.1c0.7,0.1,1.6,0.1,2.5,0.2v-0.7c0-1-0.2-1.8-0.6-2.4c-0.4-0.6-0.9-1.1-1.6-1.5
				c-0.6-0.4-1.3-0.6-2.1-0.7c-0.7-0.1-1.5-0.2-2.2-0.2c-2.5,0-4.6,0.3-6.5,0.9c-1.9,0.6-3.4,1.4-4.5,2.2l-5.3-8
				c1.6-1.3,4-2.5,6.9-3.6c3-1.1,6.8-1.7,11.4-1.7c2.7,0,5.1,0.3,7.3,1c2.2,0.7,4.1,1.7,5.7,3.1c1.6,1.4,2.8,3.1,3.7,5.2
				c0.9,2.1,1.3,4.5,1.3,7.2v23.4h-13.1L370.6,368z M370.6,354.9c-0.9-0.2-2.2-0.3-3.8-0.3c-2.3,0-4,0.5-5.1,1.4
				c-1.1,0.9-1.7,2-1.7,3.3c0,2.9,1.5,4.3,4.6,4.3c0.7,0,1.4-0.1,2.1-0.3c0.7-0.2,1.3-0.5,1.9-1c0.5-0.5,1-1.1,1.4-1.9
				c0.4-0.8,0.5-1.7,0.5-2.9V354.9z"/>
		</g>
		<g>
			<path d="M523.7,175.9v243.5H280.2V175.9H523.7 M543.7,155.9H260.2v283.5h283.5V155.9L543.7,155.9z"/>
		</g>
	</g>
</g>
</svg>
